<svg width="164" height="164" viewBox="0 0 164 164" fill="none" xmlns="http://www.w3.org/2000/svg">
<circle cx="82" cy="82" r="78.5" stroke="#452181" stroke-width="7"/>
<path d="M25.4216 111.933C26.0537 111.469 26.7065 111.181 27.38 111.069C28.0591 110.964 28.6896 111.028 29.2714 111.261C29.8589 111.502 30.3509 111.887 30.7476 112.418C31.094 112.882 31.3016 113.354 31.3705 113.836C31.4449 114.326 31.4174 114.78 31.2879 115.199L32.1796 114.545L33.3612 116.126L27.1078 120.714L25.9261 119.133L26.8404 118.462C26.3961 118.475 25.942 118.375 25.4782 118.159C25.0275 117.946 24.6289 117.607 24.2825 117.144C23.8915 116.62 23.6693 116.043 23.6162 115.41C23.5687 114.785 23.6945 114.166 23.9937 113.553C24.306 112.942 24.7819 112.402 25.4216 111.933ZM29.0529 116.839C29.4366 116.557 29.7081 116.242 29.8673 115.894C30.034 115.54 30.0939 115.184 30.0469 114.825C30.0074 114.46 29.8788 114.132 29.6609 113.84C29.443 113.549 29.1704 113.332 28.843 113.19C28.5157 113.048 28.1541 113.001 27.7583 113.048C27.3757 113.098 26.9962 113.26 26.62 113.536C26.2437 113.812 25.9685 114.13 25.7943 114.489C25.6331 114.851 25.5695 115.21 25.6034 115.567C25.6428 115.932 25.7687 116.256 25.981 116.54C26.1989 116.832 26.4743 117.052 26.8073 117.201C27.1477 117.345 27.5093 117.393 27.8919 117.343C28.2821 117.289 28.6691 117.12 29.0529 116.839Z" fill="#452181"/>
<path d="M35.6816 124.572C36.2002 123.96 36.7782 123.53 37.4154 123.283C38.0586 123.029 38.7082 122.962 39.3643 123.083C40.0264 123.196 40.6446 123.492 41.2188 123.969C41.958 124.583 42.4113 125.276 42.5785 126.046C42.759 126.815 42.6513 127.599 42.2555 128.399L40.6299 127.048C40.7609 126.72 40.7826 126.398 40.6951 126.082C40.6208 125.766 40.4329 125.482 40.1314 125.231C39.7008 124.873 39.2272 124.747 38.7106 124.851C38.2001 124.949 37.7036 125.282 37.2211 125.852C36.7446 126.415 36.4993 126.957 36.4852 127.48C36.477 127.995 36.6883 128.431 37.1189 128.789C37.729 129.296 38.3565 129.357 39.0015 128.971L40.6271 130.322C39.9192 130.826 39.1615 131.064 38.3538 131.036C37.5461 131.007 36.7762 130.689 36.0441 130.08C35.4699 129.603 35.0659 129.055 34.832 128.436C34.6041 127.809 34.5575 127.164 34.6923 126.499C34.8331 125.827 35.1629 125.185 35.6816 124.572Z" fill="#452181"/>
<path d="M47.7338 133.815C48.1005 133.101 48.5662 132.552 49.1308 132.168C49.6996 131.775 50.317 131.564 50.9829 131.534C51.6532 131.496 52.3216 131.645 52.9883 131.981C53.8466 132.414 54.4441 132.987 54.7807 133.7C55.1299 134.409 55.2021 135.198 54.9972 136.067L53.1096 135.115C53.1631 134.766 53.1117 134.447 52.9553 134.159C52.8115 133.867 52.5646 133.633 52.2146 133.456C51.7146 133.204 51.2249 133.187 50.7456 133.405C50.2706 133.615 49.8625 134.052 49.5213 134.717C49.1844 135.372 49.068 135.957 49.1721 136.469C49.2804 136.973 49.5845 137.351 50.0846 137.603C50.7929 137.961 51.4175 137.878 51.9582 137.357L53.8458 138.309C53.2703 138.959 52.5863 139.361 51.7936 139.516C51.0009 139.67 50.1795 139.533 49.3295 139.104C48.6628 138.768 48.1457 138.324 47.7783 137.773C47.4151 137.214 47.2242 136.595 47.2054 135.916C47.1909 135.229 47.367 134.529 47.7338 133.815Z" fill="#452181"/>
<path d="M69.1148 141.807C69.0467 142.079 68.9673 142.319 68.8766 142.527L63.3709 141.172C63.2801 141.726 63.3637 142.198 63.6218 142.589C63.88 142.979 64.2538 143.234 64.7432 143.355C65.4501 143.529 66.0291 143.349 66.4802 142.816L68.533 143.322C68.1339 143.992 67.5672 144.487 66.8329 144.806C66.1008 145.116 65.2862 145.161 64.389 144.94C63.664 144.762 63.0512 144.443 62.5506 143.983C62.0613 143.516 61.7274 142.949 61.5486 142.28C61.379 141.614 61.3906 140.896 61.5836 140.126C61.7788 139.347 62.1088 138.703 62.5735 138.193C63.0382 137.682 63.5958 137.339 64.2462 137.163C64.8966 136.986 65.5934 136.99 66.3365 137.173C67.0525 137.349 67.6528 137.66 68.1375 138.106C68.6313 138.554 68.9608 139.102 69.1259 139.748C69.3024 140.387 69.2987 141.074 69.1148 141.807ZM67.2799 140.779C67.3934 140.287 67.3142 139.855 67.0425 139.48C66.773 139.097 66.3891 138.844 65.8906 138.721C65.4193 138.605 64.9843 138.652 64.5854 138.861C64.1978 139.063 63.9042 139.409 63.7046 139.898L67.2799 140.779Z" fill="#452181"/>
<path d="M79.9411 147.225C79.3066 147.21 78.7402 147.084 78.2418 146.848C77.7437 146.603 77.3502 146.28 77.0612 145.881C76.7816 145.482 76.6336 145.045 76.6173 144.568L78.5908 144.616C78.6207 144.915 78.7593 145.166 79.0064 145.368C79.2628 145.57 79.5823 145.676 79.9649 145.685C80.3381 145.694 80.6292 145.627 80.8381 145.482C81.0564 145.338 81.1684 145.149 81.1742 144.916C81.1804 144.664 81.0543 144.475 80.796 144.347C80.5473 144.21 80.1449 144.06 79.5887 143.898C79.0137 143.744 78.5413 143.588 78.1718 143.429C77.8116 143.271 77.4999 143.035 77.2369 142.721C76.9832 142.406 76.8628 141.988 76.8757 141.466C76.8862 141.036 77.0171 140.647 77.2684 140.299C77.5291 139.95 77.8905 139.679 78.3528 139.485C78.8244 139.291 79.3727 139.201 79.9979 139.216C80.9216 139.238 81.653 139.49 82.192 139.969C82.7313 140.44 83.0193 141.068 83.056 141.853L81.1806 141.807C81.1601 141.499 81.0355 141.253 80.8066 141.07C80.5872 140.878 80.2863 140.778 79.9037 140.768C79.5491 140.76 79.2723 140.818 79.0731 140.944C78.8833 141.07 78.7855 141.25 78.7798 141.483C78.7734 141.745 78.8991 141.948 79.1569 142.095C79.4149 142.232 79.8175 142.377 80.3646 142.53C80.9209 142.683 81.3793 142.839 81.7395 142.997C82.0997 143.155 82.4066 143.396 82.66 143.72C82.923 144.034 83.0529 144.448 83.0496 144.961C83.0386 145.409 82.9028 145.808 82.6421 146.156C82.3908 146.505 82.0294 146.776 81.5578 146.97C81.0958 147.155 80.5569 147.24 79.9411 147.225Z" fill="#452181"/>
<path d="M91.6389 137.79C91.2976 137.843 90.995 137.781 90.7311 137.604C90.475 137.417 90.3216 137.162 90.271 136.839C90.2204 136.516 90.2891 136.232 90.4772 135.986C90.6731 135.729 90.9417 135.574 91.283 135.522C91.6243 135.469 91.923 135.536 92.1791 135.724C92.443 135.9 92.6003 136.15 92.6509 136.473C92.7015 136.795 92.6289 137.085 92.433 137.342C92.2449 137.588 91.9802 137.737 91.6389 137.79ZM92.7368 138.556L93.939 146.218L92.0018 146.516L90.7997 138.854L92.7368 138.556Z" fill="#452181"/>
<path d="M101.639 137.693C101.747 137.257 101.968 136.855 102.3 136.487C102.641 136.116 103.079 135.834 103.615 135.641C104.238 135.416 104.856 135.367 105.469 135.493C106.091 135.616 106.652 135.91 107.15 136.375C107.655 136.828 108.044 137.427 108.317 138.172C108.591 138.917 108.685 139.632 108.599 140.318C108.518 140.992 108.281 141.578 107.888 142.077C107.503 142.573 106.999 142.933 106.376 143.158C105.831 143.355 105.314 143.422 104.824 143.361C104.34 143.287 103.912 143.124 103.541 142.871L103.922 143.909L102.078 144.574L98.5065 134.849L100.35 134.184L101.639 137.693ZM106.434 138.851C106.273 138.413 106.043 138.07 105.742 137.821C105.448 137.56 105.121 137.4 104.761 137.341C104.41 137.279 104.064 137.31 103.721 137.433C103.387 137.554 103.104 137.755 102.869 138.038C102.641 138.309 102.494 138.64 102.429 139.031C102.372 139.418 102.424 139.831 102.585 140.269C102.746 140.707 102.974 141.056 103.268 141.317C103.572 141.575 103.901 141.739 104.255 141.81C104.614 141.869 104.961 141.838 105.295 141.718C105.637 141.594 105.921 141.393 106.146 141.113C106.38 140.83 106.526 140.495 106.582 140.107C106.648 139.717 106.598 139.298 106.434 138.851Z" fill="#452181"/>
<path d="M114.276 127.837L119.672 136.68L117.991 137.688L112.594 128.844L114.276 127.837Z" fill="#452181"/>
<path d="M129.222 124.263C129.409 124.471 129.564 124.67 129.687 124.861L125.446 128.625C125.857 129.01 126.298 129.205 126.769 129.211C127.24 129.217 127.664 129.053 128.041 128.718C128.585 128.235 128.763 127.659 128.574 126.991L130.155 125.588C130.488 126.29 130.58 127.032 130.431 127.813C130.275 128.588 129.852 129.282 129.161 129.895C128.603 130.391 127.991 130.716 127.325 130.87C126.66 131.011 125.998 130.968 125.34 130.741C124.689 130.508 124.097 130.097 123.565 129.509C123.027 128.913 122.676 128.282 122.514 127.615C122.351 126.948 122.38 126.299 122.601 125.666C122.822 125.033 123.218 124.463 123.791 123.955C124.342 123.465 124.941 123.146 125.586 122.998C126.239 122.843 126.881 122.878 127.512 123.103C128.145 123.316 128.715 123.702 129.222 124.263ZM127.328 125.195C126.983 124.828 126.578 124.651 126.112 124.665C125.64 124.672 125.212 124.846 124.829 125.186C124.466 125.509 124.259 125.892 124.208 126.337C124.157 126.768 124.28 127.202 124.574 127.64L127.328 125.195Z" fill="#452181"/>
<path d="M139.771 118.409C139.4 118.924 138.975 119.321 138.497 119.6C138.012 119.873 137.522 120.018 137.027 120.033C136.538 120.041 136.091 119.919 135.686 119.666L136.842 118.066C137.107 118.208 137.394 118.234 137.701 118.143C138.014 118.045 138.283 117.84 138.507 117.53C138.725 117.227 138.834 116.95 138.832 116.697C138.836 116.436 138.743 116.239 138.552 116.104C138.347 115.958 138.118 115.956 137.866 116.098C137.612 116.226 137.26 116.474 136.81 116.842C136.357 117.23 135.961 117.532 135.62 117.749C135.285 117.957 134.913 118.082 134.503 118.124C134.099 118.157 133.684 118.023 133.257 117.721C132.907 117.472 132.658 117.147 132.511 116.745C132.369 116.336 132.349 115.887 132.449 115.397C132.555 114.9 132.791 114.398 133.157 113.891C133.698 113.142 134.32 112.679 135.023 112.503C135.718 112.321 136.402 112.434 137.075 112.842L135.976 114.363C135.708 114.207 135.434 114.173 135.153 114.259C134.869 114.333 134.616 114.525 134.392 114.835C134.184 115.123 134.076 115.384 134.068 115.618C134.065 115.845 134.159 116.026 134.349 116.161C134.562 116.312 134.803 116.322 135.07 116.191C135.329 116.055 135.678 115.804 136.114 115.439C136.556 115.066 136.945 114.775 137.28 114.566C137.615 114.358 137.988 114.239 138.4 114.211C138.81 114.17 139.227 114.294 139.651 114.583C140.016 114.842 140.27 115.176 140.412 115.586C140.559 115.988 140.58 116.437 140.474 116.934C140.366 117.418 140.132 117.91 139.771 118.409Z" fill="#452181"/>
<path d="M37.5029 31.1681C37.8472 31.5613 38.0755 32.0133 38.1878 32.5242C38.3072 33.0288 38.2596 33.5625 38.0452 34.1252C37.8378 34.6817 37.4332 35.2256 36.8314 35.7568L35.6034 36.8407L38.075 39.6635L36.6056 40.9606L30.1682 33.6085L32.8657 31.2276C33.4325 30.7273 34.0014 30.3994 34.5724 30.244C35.1435 30.0886 35.6776 30.0964 36.1748 30.2676C36.679 30.4325 37.1217 30.7327 37.5029 31.1681ZM35.7263 34.6221C36.1322 34.2639 36.3531 33.907 36.3892 33.5515C36.4191 33.189 36.2865 32.8392 35.9914 32.5021C35.3643 31.7859 34.6518 31.7798 33.8541 32.4839L32.6891 33.5123L34.5612 35.6505L35.7263 34.6221Z" fill="#452181"/>
<path d="M48.9036 23.861C48.9375 23.3797 49.0785 22.9424 49.3264 22.5491C49.5827 22.1515 49.9423 21.8315 50.4053 21.589L51.3541 23.4153L50.8952 23.6556C50.3495 23.9414 50.0028 24.2863 49.855 24.6902C49.7156 25.0899 49.8115 25.6086 50.1428 26.2463L51.9241 29.6752L50.1878 30.5845L46.6123 23.7018L48.3486 22.7926L48.9036 23.861Z" fill="#452181"/>
<path d="M68.5952 19.3497C68.6616 19.6217 68.7033 19.8709 68.7202 20.0975L63.2144 21.4525C63.3926 21.9854 63.6869 22.3647 64.0975 22.5904C64.5081 22.8162 64.9581 22.8688 65.4475 22.7484C66.1544 22.5744 66.5833 22.1469 66.734 21.4658L68.7868 20.9606C68.7463 21.7395 68.4756 22.4405 67.9744 23.0636C67.471 23.6777 66.7707 24.0952 65.8735 24.316C65.1484 24.4944 64.4572 24.4964 63.7997 24.3218C63.149 24.1359 62.5886 23.7884 62.1185 23.2793C61.6574 22.768 61.3328 22.127 61.1446 21.3564C60.9542 20.5766 60.9457 19.853 61.119 19.1856C61.2923 18.5181 61.6257 17.9555 62.1192 17.4976C62.6127 17.0398 63.231 16.7194 63.9742 16.5365C64.6901 16.3603 65.3667 16.3572 66.0039 16.5272C66.6501 16.6949 67.197 17.0265 67.6446 17.5219C68.0991 18.006 68.4159 18.6152 68.5952 19.3497ZM66.4912 19.2908C66.3626 18.8034 66.0907 18.457 65.6755 18.2516C65.2581 18.0372 64.8001 17.9913 64.3016 18.1139C63.8304 18.2299 63.467 18.4731 63.2116 18.8436C62.963 19.2027 62.8645 19.6451 62.9159 20.1707L66.4912 19.2908Z" fill="#452181"/>
<path d="M79.0583 18.1308C79.0814 17.3285 79.2648 16.6335 79.6084 16.0458C79.9524 15.4489 80.4183 14.9955 81.0061 14.6857C81.5942 14.3666 82.2614 14.2179 83.0077 14.2395C83.9687 14.2674 84.7547 14.5329 85.3658 15.0361C85.9866 15.5303 86.3917 16.2143 86.5814 17.0882L84.4683 17.027C84.366 16.6879 84.1822 16.4211 83.917 16.2267C83.6614 16.0232 83.3377 15.9158 82.9459 15.9044C82.3861 15.8882 81.9371 16.0806 81.5987 16.4817C81.2607 16.8734 81.0809 17.4424 81.0595 18.1888C81.0383 18.9258 81.1851 19.5043 81.4998 19.9242C81.8148 20.3349 82.2522 20.5483 82.812 20.5645C83.605 20.5875 84.1329 20.248 84.3959 19.5459L86.509 19.6072C86.2703 20.4406 85.8266 21.0954 85.178 21.5714C84.5294 22.0475 83.7293 22.2718 82.7777 22.2442C82.0313 22.2226 81.3736 22.0401 80.8046 21.6969C80.2358 21.3442 79.7968 20.8647 79.4874 20.2581C79.1783 19.6422 79.0353 18.9331 79.0583 18.1308Z" fill="#452181"/>
<path d="M99.48 15.603C99.1455 15.5172 98.8917 15.3413 98.7186 15.0754C98.5568 14.8026 98.5162 14.508 98.5967 14.1914C98.6772 13.8748 98.8524 13.6403 99.1223 13.4879C99.4036 13.3287 99.7114 13.2921 100.046 13.3778C100.38 13.4636 100.629 13.6428 100.79 13.9155C100.963 14.1815 101.01 14.4728 100.929 14.7894C100.849 15.106 100.668 15.3438 100.387 15.503C100.117 15.6554 99.8146 15.6887 99.48 15.603ZM100.188 16.7384L98.2764 24.2551L96.3778 23.7684L98.2894 16.2516L100.188 16.7384Z" fill="#452181"/>
<path d="M110.03 28.8078C109.366 28.4678 108.841 28.0161 108.457 27.4528C108.078 26.8811 107.871 26.2462 107.838 25.5479C107.814 24.8539 107.981 24.1532 108.34 23.4457C108.699 22.7382 109.169 22.1926 109.751 21.8088C110.341 21.4293 110.98 21.232 111.668 21.217C112.36 21.1936 113.039 21.3519 113.704 21.6919C114.368 22.0319 114.895 22.4898 115.283 23.0657C115.675 23.6333 115.888 24.2662 115.921 24.9645C115.962 25.667 115.803 26.372 115.444 27.0795C115.085 27.7869 114.607 28.3283 114.008 28.7036C113.418 29.0831 112.772 29.2824 112.072 29.3015C111.384 29.3166 110.704 29.152 110.03 28.8078ZM110.803 27.2846C111.119 27.4461 111.452 27.5221 111.802 27.5125C112.165 27.4989 112.508 27.3806 112.83 27.1576C113.152 26.9346 113.426 26.6026 113.649 26.1615C113.983 25.5039 114.064 24.9111 113.892 24.383C113.733 23.8509 113.404 23.4573 112.906 23.2023C112.407 22.9473 111.897 22.9116 111.375 23.0953C110.865 23.2748 110.443 23.6934 110.11 24.3509C109.776 25.0085 109.68 25.5991 109.823 26.1227C109.978 26.6423 110.305 27.0296 110.803 27.2846Z" fill="#452181"/>
<path d="M123.821 38.0502C123.349 37.6256 123.001 37.1612 122.775 36.657C122.556 36.1458 122.466 35.6441 122.505 35.1519C122.551 34.6659 122.722 34.236 123.018 33.8622L124.486 35.1827C124.315 35.4304 124.257 35.7117 124.314 36.0265C124.378 36.3475 124.552 36.636 124.836 36.892C125.114 37.1417 125.379 37.2796 125.631 37.3055C125.89 37.3377 126.097 37.2668 126.252 37.0927C126.42 36.9047 126.447 36.6781 126.334 36.4127C126.234 36.1467 126.025 35.7707 125.708 35.2847C125.371 34.7931 125.114 34.3668 124.936 34.0057C124.765 33.6508 124.681 33.2679 124.685 32.8571C124.696 32.4525 124.875 32.0553 125.223 31.6654C125.509 31.3451 125.861 31.1338 126.277 31.0316C126.701 30.9356 127.151 30.964 127.627 31.1167C128.111 31.2757 128.585 31.5643 129.05 31.9826C129.737 32.6007 130.13 33.268 130.228 33.9845C130.333 34.694 130.145 35.3599 129.665 35.9823L128.27 34.7274C128.454 34.4789 128.519 34.2104 128.464 33.9221C128.421 33.633 128.258 33.3604 127.974 33.1045C127.71 32.8672 127.462 32.7318 127.229 32.6981C127.003 32.6707 126.813 32.7441 126.657 32.9181C126.483 33.1131 126.447 33.3502 126.548 33.6294C126.655 33.9017 126.867 34.2743 127.183 34.7471C127.506 35.2261 127.753 35.6431 127.924 35.998C128.095 36.3529 128.172 36.7361 128.155 37.1476C128.151 37.5584 127.982 37.9584 127.647 38.3476C127.349 38.6818 126.988 38.8969 126.564 38.9929C126.147 39.0952 125.697 39.0668 125.214 38.9078C124.743 38.7481 124.279 38.4622 123.821 38.0502Z" fill="#452181"/>
<circle cx="23" cy="76" r="3" fill="#452181"/>
<circle cx="138" cy="76" r="3" fill="#452181"/>
<path d="M83.03 76.9389C71.453 73.9561 67.73 70.8722 67.73 66.0694C67.73 60.5589 72.881 56.7167 81.5 56.7167C88.742 56.7167 92.363 59.4467 93.689 63.7944C94.301 65.8167 95.984 67.3333 98.126 67.3333H99.656C103.022 67.3333 105.419 64.0472 104.246 60.9128C102.104 54.9472 97.106 49.9928 89.15 48.0717V44.5833C89.15 40.3872 85.733 37 81.5 37C77.267 37 73.85 40.3872 73.85 44.5833V47.92C63.956 50.0433 56 56.4133 56 66.1706C56 77.8489 65.741 83.6628 79.97 87.05C92.72 90.0833 95.27 94.5322 95.27 99.2339C95.27 102.722 92.771 108.283 81.5 108.283C73.085 108.283 68.75 105.301 67.067 101.054C66.302 99.0822 64.568 97.6667 62.477 97.6667H61.049C57.632 97.6667 55.235 101.104 56.51 104.239C59.417 111.266 66.2 115.412 73.85 117.029V120.417C73.85 124.613 77.267 128 81.5 128C85.733 128 89.15 124.613 89.15 120.417V117.131C99.095 115.26 107 109.547 107 99.1833C107 84.8256 94.607 79.9217 83.03 76.9389Z" fill="#452181"/>
</svg>
