<svg width="164" height="164" viewBox="0 0 164 164" fill="none" xmlns="http://www.w3.org/2000/svg">
<circle cx="82" cy="82" r="78.5" stroke="#452181" stroke-width="7"/>
<path d="M29.2991 118.463C29.9006 117.96 30.5357 117.63 31.2043 117.472C31.879 117.321 32.5172 117.341 33.1187 117.532C33.7265 117.729 34.2489 118.077 34.686 118.575C35.0677 119.01 35.3106 119.463 35.4148 119.936C35.5252 120.415 35.5305 120.867 35.4308 121.291L36.2793 120.581L37.5814 122.065L31.6309 127.039L30.3288 125.556L31.1988 124.828C30.7533 124.872 30.2897 124.804 29.808 124.623C29.3396 124.443 28.9146 124.135 28.5329 123.7C28.1019 123.209 27.8368 122.653 27.7375 122.03C27.6444 121.415 27.7258 120.794 27.982 120.166C28.2514 119.539 28.6904 118.972 29.2991 118.463ZM33.304 123.068C33.6692 122.763 33.9192 122.433 34.0538 122.077C34.1956 121.715 34.2299 121.358 34.1566 121.006C34.0905 120.648 33.9374 120.332 33.6973 120.058C33.4572 119.784 33.1675 119.589 32.8283 119.471C32.4891 119.353 32.1224 119.332 31.7281 119.406C31.3472 119.481 30.9777 119.668 30.6197 119.967C30.2617 120.267 30.0082 120.6 29.8592 120.968C29.7235 121.337 29.6857 121.697 29.7456 122.048C29.8117 122.406 29.9618 122.719 30.1957 122.985C30.4358 123.259 30.7286 123.458 31.0739 123.583C31.4265 123.702 31.7932 123.723 32.1741 123.648C32.5622 123.567 32.9388 123.374 33.304 123.068Z" fill="#452181"/>
<path d="M45.8796 131.569L43.6682 134.6C43.5142 134.811 43.4513 135 43.4794 135.167C43.5207 135.333 43.664 135.5 43.9092 135.671L44.6565 136.19L43.6828 137.525L42.6711 136.822C41.3145 135.879 41.1093 134.759 42.0555 133.462L44.2585 130.442L43.4998 129.915L44.4487 128.614L45.2074 129.142L46.3379 127.592L47.9589 128.719L46.8285 130.268L48.254 131.259L47.3051 132.559L45.8796 131.569Z" fill="#452181"/>
<path d="M60.5818 141.739C60.4746 141.997 60.3607 142.223 60.2402 142.417L54.9663 140.335C54.7953 140.869 54.8097 141.346 55.0094 141.766C55.2091 142.186 55.5434 142.489 56.0122 142.674C56.6893 142.941 57.2908 142.842 57.8167 142.378L59.783 143.154C59.2888 143.762 58.6536 144.173 57.8775 144.388C57.1049 144.595 56.2889 144.529 55.4294 144.189C54.7349 143.915 54.1724 143.518 53.7419 142.996C53.3236 142.47 53.0743 141.865 52.9941 141.181C52.9225 140.501 53.0386 139.794 53.3423 139.061C53.6497 138.32 54.0714 137.729 54.6075 137.288C55.1436 136.848 55.7477 136.585 56.4197 136.499C57.0917 136.413 57.7836 136.511 58.4955 136.792C59.1813 137.062 59.7326 137.451 60.1493 137.956C60.5747 138.465 60.8225 139.05 60.8925 139.709C60.9748 140.364 60.8712 141.04 60.5818 141.739ZM58.908 140.476C59.0923 140.007 59.0767 139.569 58.8611 139.163C58.6491 138.748 58.3044 138.447 57.827 138.258C57.3755 138.08 56.9364 138.067 56.5095 138.22C56.0949 138.367 55.7528 138.669 55.4832 139.124L58.908 140.476Z" fill="#452181"/>
<path d="M74.7808 141.376C75.6993 141.478 76.4076 141.852 76.9059 142.498C77.4053 143.135 77.5949 143.973 77.4747 145.012L76.9515 149.531L75.0033 149.317L75.4959 145.061C75.5667 144.449 75.4678 143.964 75.1993 143.606C74.9317 143.238 74.5336 143.025 74.0048 142.967C73.4667 142.908 73.0207 143.027 72.6666 143.326C72.3229 143.617 72.1156 144.069 72.0448 144.68L71.5522 148.936L69.604 148.721L70.4958 141.017L72.444 141.231L72.333 142.191C72.6314 141.886 72.9907 141.663 73.4111 141.521C73.8419 141.372 74.2984 141.323 74.7808 141.376Z" fill="#452181"/>
<path d="M88.1456 146.035C88.0152 145.243 88.0628 144.527 88.2885 143.887C88.5126 143.238 88.884 142.707 89.4025 142.295C89.9196 141.874 90.547 141.606 91.2846 141.49C92.2343 141.341 93.0575 141.458 93.7542 141.84C94.4585 142.211 94.9873 142.808 95.3404 143.631L93.2519 143.959C93.0867 143.645 92.8552 143.417 92.5575 143.274C92.2674 143.121 91.9288 143.075 91.5415 143.136C90.9883 143.223 90.5837 143.494 90.3277 143.95C90.0702 144.397 90.0021 144.988 90.1235 145.725C90.2433 146.453 90.4979 146.994 90.8874 147.348C91.2753 147.694 91.7459 147.823 92.2991 147.736C93.0829 147.613 93.537 147.183 93.6614 146.445L95.7499 146.118C95.6743 146.98 95.3632 147.704 94.8166 148.291C94.27 148.877 93.5265 149.244 92.586 149.392C91.8483 149.507 91.1671 149.449 90.5424 149.216C89.9161 148.974 89.393 148.584 88.9733 148.045C88.552 147.497 88.2761 146.827 88.1456 146.035Z" fill="#452181"/>
<path d="M105.036 137.294C104.713 137.418 104.403 137.422 104.105 137.307C103.812 137.179 103.605 136.964 103.483 136.661C103.36 136.358 103.364 136.067 103.492 135.788C103.626 135.496 103.855 135.289 104.177 135.165C104.499 135.041 104.807 135.043 105.1 135.17C105.398 135.286 105.608 135.495 105.73 135.798C105.853 136.101 105.847 136.398 105.713 136.689C105.584 136.969 105.358 137.17 105.036 137.294ZM106.283 137.805L109.184 144.998L107.355 145.701L104.454 138.507L106.283 137.805Z" fill="#452181"/>
<path d="M120.84 139.315C120.215 139.723 119.56 139.957 118.876 140.015C118.185 140.065 117.524 139.934 116.892 139.623C116.267 139.307 115.73 138.822 115.281 138.168C114.832 137.514 114.58 136.843 114.525 136.154C114.478 135.46 114.616 134.812 114.939 134.21C115.257 133.601 115.728 133.092 116.352 132.683C116.977 132.275 117.639 132.043 118.336 131.987C119.029 131.924 119.692 132.048 120.324 132.359C120.964 132.665 121.509 133.145 121.958 133.799C122.408 134.453 122.652 135.129 122.691 135.829C122.737 136.523 122.598 137.177 122.273 137.792C121.95 138.393 121.473 138.901 120.84 139.315ZM119.873 137.907C120.17 137.713 120.399 137.462 120.562 137.155C120.727 136.835 120.79 136.482 120.751 136.095C120.711 135.708 120.551 135.311 120.271 134.903C119.854 134.295 119.37 133.937 118.82 133.828C118.273 133.707 117.765 133.8 117.296 134.107C116.828 134.413 116.547 134.837 116.454 135.377C116.363 135.904 116.527 136.472 116.944 137.08C117.362 137.688 117.837 138.057 118.368 138.189C118.903 138.307 119.404 138.213 119.873 137.907ZM116.574 130.163L114.712 133.138L113.919 131.984L115.67 128.848L116.574 130.163Z" fill="#452181"/>
<path d="M129.258 122.078C129.868 121.384 130.586 121.011 131.412 120.96C132.232 120.903 133.043 121.21 133.845 121.881L137.335 124.799L136.043 126.272L132.756 123.524C132.283 123.129 131.82 122.943 131.366 122.965C130.905 122.981 130.499 123.189 130.148 123.588C129.791 123.995 129.637 124.426 129.685 124.88C129.733 125.321 129.993 125.739 130.466 126.134L133.752 128.882L132.459 130.355L126.509 125.38L127.802 123.907L128.543 124.527C128.458 124.115 128.476 123.698 128.597 123.277C128.718 122.842 128.938 122.443 129.258 122.078Z" fill="#452181"/>
<path d="M38.8382 32.3318C39.3385 32.0808 39.8646 32.027 40.4166 32.1705C40.9685 32.3139 41.4185 32.6168 41.7665 33.0791C42.0809 33.4966 42.2547 33.9447 42.2879 34.4234C42.323 34.8889 42.2146 35.358 41.9628 35.8304C41.711 36.3028 41.3212 36.7394 40.7934 37.1402L37.4372 39.6884L31.5598 31.8816L34.771 29.4433C35.2988 29.0426 35.8168 28.7841 36.325 28.6677C36.8407 28.5457 37.3102 28.5642 37.7336 28.7232C38.1645 28.8765 38.5259 29.147 38.8178 29.5348C39.1602 29.9896 39.3239 30.463 39.3087 30.955C39.301 31.4413 39.1442 31.9002 38.8382 32.3318ZM35.5459 33.9175L36.9731 32.8338C37.3448 32.5516 37.5692 32.2523 37.6464 31.9359C37.718 31.612 37.6359 31.2935 37.4001 30.9803C37.1644 30.6671 36.8816 30.501 36.5518 30.4819C36.2219 30.4628 35.8712 30.5943 35.4995 30.8765L34.0723 31.9602L35.5459 33.9175ZM39.6105 36.0344C39.9896 35.7466 40.2159 35.4342 40.2893 35.0972C40.3701 34.7545 40.287 34.4192 40.04 34.0911C39.7874 33.7556 39.4794 33.5792 39.1161 33.5622C38.7471 33.5376 38.3731 33.6693 37.994 33.9571L36.4553 35.1254L38.0383 37.2281L39.6105 36.0344Z" fill="#452181"/>
<path d="M60.5169 18.3749L62.8036 25.7862L60.9189 26.3733L60.63 25.4369C60.4884 25.8329 60.2505 26.1856 59.9162 26.495C59.5881 26.7928 59.1968 27.0124 58.7423 27.154C58.1631 27.3344 57.6136 27.3736 57.0937 27.2716C56.5711 27.1607 56.1077 26.9092 55.7035 26.517C55.3054 26.1131 55.0045 25.5812 54.8009 24.9212L53.4594 20.5735L55.3307 19.9905L56.5896 24.0707C56.7712 24.6594 57.0586 25.0684 57.4517 25.2979C57.8421 25.5184 58.2912 25.5496 58.7992 25.3913C59.316 25.2303 59.6733 24.9479 59.8711 24.5442C60.0661 24.1315 60.0727 23.6309 59.8911 23.0422L58.6322 18.962L60.5169 18.3749Z" fill="#452181"/>
<path d="M85.8328 19.3295C85.8199 19.6092 85.7896 19.8601 85.742 20.0821L80.078 19.8211C80.0988 20.3826 80.2743 20.8298 80.6046 21.1627C80.935 21.4956 81.3519 21.6737 81.8553 21.6969C82.5826 21.7304 83.1144 21.4419 83.451 20.8314L85.5627 20.9288C85.3045 21.6643 84.8472 22.2599 84.1908 22.7155C83.5349 23.1618 82.7454 23.3636 81.8224 23.3211C81.0765 23.2867 80.4127 23.0926 79.8311 22.7388C79.2592 22.3761 78.8195 21.884 78.5118 21.2625C78.2135 20.6414 78.0826 19.9347 78.1192 19.1422C78.1563 18.3404 78.3519 17.644 78.7063 17.053C79.0606 16.462 79.5389 16.0169 80.1414 15.7176C80.7438 15.4184 81.4273 15.2864 82.1919 15.3216C82.9284 15.3556 83.5784 15.5444 84.1418 15.888C84.7145 16.2321 85.1458 16.7051 85.4357 17.3071C85.7353 17.9002 85.8677 18.5743 85.8328 19.3295ZM83.8308 18.6766C83.8447 18.1728 83.6814 17.7635 83.3409 17.4488C83.0008 17.1248 82.5744 16.951 82.0616 16.9273C81.5768 16.905 81.1597 17.0353 80.8103 17.3181C80.4706 17.5921 80.2514 17.9884 80.1527 18.5071L83.8308 18.6766Z" fill="#452181"/>
<path d="M107.002 20.2162C107.855 20.571 108.432 21.1295 108.734 21.8916C109.038 22.6451 108.991 23.5049 108.592 24.4712L106.856 28.6768L105.046 27.9241L106.681 23.9644C106.916 23.395 106.954 22.9002 106.794 22.48C106.638 22.0511 106.314 21.7346 105.823 21.5303C105.323 21.3224 104.863 21.3128 104.442 21.5015C104.033 21.6852 103.71 22.0617 103.475 22.6311L101.84 26.5908L100.031 25.8382L102.991 18.6692L104.8 19.4219L104.432 20.3148C104.801 20.1045 105.207 19.9902 105.649 19.9718C106.103 19.9483 106.554 20.0298 107.002 20.2162Z" fill="#452181"/>
<path d="M122.935 33.3854C123.469 32.8115 124.055 32.4079 124.693 32.1746C125.338 31.9476 125.965 31.8966 126.576 32.0215C127.193 32.1528 127.744 32.4451 128.227 32.8985C128.649 33.2945 128.937 33.7248 129.091 34.1893C129.252 34.6603 129.307 35.115 129.256 35.5535L130.009 34.7438L131.449 36.0945L126.165 41.7721L124.725 40.4214L125.498 39.5913C125.066 39.6853 124.604 39.6679 124.112 39.539C123.633 39.4096 123.183 39.147 122.761 38.751C122.284 38.304 121.963 37.7723 121.797 37.1559C121.638 36.5459 121.65 35.9103 121.832 35.2491C122.027 34.5874 122.395 33.9662 122.935 33.3854ZM127.367 37.5826C127.692 37.2342 127.9 36.8731 127.993 36.4994C128.092 36.1189 128.086 35.7552 127.976 35.4082C127.871 35.0544 127.687 34.753 127.421 34.504C127.156 34.2549 126.85 34.0899 126.505 34.0089C126.159 33.928 125.798 33.9469 125.419 34.0656C125.054 34.1838 124.713 34.4137 124.395 34.7553C124.077 35.0969 123.865 35.4614 123.76 35.8488C123.668 36.2357 123.67 36.6028 123.768 36.9502C123.872 37.304 124.053 37.6022 124.312 37.8449C124.577 38.094 124.886 38.2622 125.238 38.3495C125.597 38.43 125.959 38.4111 126.324 38.2929C126.695 38.1678 127.043 37.9311 127.367 37.5826Z" fill="#452181"/>
<circle cx="23" cy="76" r="3" fill="#452181"/>
<circle cx="142" cy="76" r="3" fill="#452181"/>
<path d="M86.2897 111.186C83.5927 113.61 79.4408 113.61 76.7439 111.151L76.3535 110.8C57.7232 94.1113 45.5513 83.1847 46.0127 69.5529C46.2256 63.5801 49.3129 57.8534 54.3165 54.4805C63.6849 48.1565 75.2534 51.1077 81.499 58.3452C87.7446 51.1077 99.3132 48.1213 108.682 54.4805C113.685 57.8534 116.772 63.5801 116.985 69.5529C117.482 83.1847 105.275 94.1113 86.6446 110.87L86.2897 111.186Z" fill="#452181"/>
</svg>
