<svg width="179" height="180" viewBox="0 0 179 180" fill="none" xmlns="http://www.w3.org/2000/svg">
<circle cx="87" cy="82" r="78.5" stroke="#452181" stroke-width="7"/>
<path d="M30.7046 106.927C30.5526 106.617 30.5215 106.31 30.6113 106.005C30.7136 105.705 30.9113 105.483 31.2042 105.338C31.4972 105.194 31.7892 105.175 32.0803 105.281C32.3839 105.391 32.6116 105.601 32.7636 105.911C32.9156 106.222 32.9404 106.527 32.8381 106.827C32.7483 107.131 32.5569 107.356 32.2639 107.501C31.971 107.645 31.6727 107.662 31.3692 107.552C31.0781 107.446 30.8565 107.237 30.7046 106.927ZM30.301 108.204L23.3455 111.635L22.4829 109.875L29.4385 106.444L30.301 108.204Z" fill="#452181"/>
<path d="M37.3338 119.575C37.943 120.27 38.2149 121.026 38.1496 121.843C38.0913 122.654 37.6704 123.406 36.8869 124.098L33.4768 127.11L32.1845 125.636L35.3953 122.8C35.857 122.392 36.1087 121.965 36.1505 121.517C36.1992 121.063 36.0482 120.636 35.6975 120.236C35.3406 119.829 34.9316 119.617 34.4705 119.601C34.0226 119.586 33.5679 119.782 33.1062 120.19L29.8954 123.026L28.6031 121.552L34.4161 116.418L35.7084 117.891L34.9844 118.531C35.4085 118.505 35.8228 118.581 36.2273 118.759C36.645 118.938 37.0138 119.21 37.3338 119.575Z" fill="#452181"/>
<path d="M48.5842 138.182L53.2694 134.033L55.0682 135.089L48.6892 140.338L46.6369 139.132L48.0783 130.984L49.8891 132.048L48.5842 138.182Z" fill="#452181"/>
<path d="M64.1916 144.116C64.3538 143.349 64.6483 142.701 65.075 142.172C65.5109 141.645 66.0228 141.277 66.6106 141.068C67.2076 140.862 67.8301 140.828 68.4782 140.966C69.0441 141.087 69.5128 141.306 69.8844 141.624C70.2652 141.944 70.5466 142.305 70.7288 142.706L70.9576 141.624L72.8881 142.037L71.2834 149.625L69.3529 149.213L69.5875 148.103C69.2658 148.407 68.8607 148.63 68.3724 148.774C67.8951 148.911 67.3735 148.919 66.8076 148.798C66.1687 148.661 65.6193 148.372 65.1594 147.931C64.7087 147.491 64.3909 146.941 64.2061 146.281C64.0323 145.614 64.0275 144.893 64.1916 144.116ZM70.1553 145.418C70.2538 144.953 70.2465 144.536 70.1335 144.168C70.0223 143.791 69.83 143.483 69.5563 143.243C69.2846 142.995 68.9708 142.832 68.6148 142.756C68.2588 142.68 67.9119 142.697 67.574 142.806C67.2361 142.915 66.9356 143.118 66.6724 143.415C66.4204 143.705 66.246 144.078 66.1495 144.534C66.0529 144.991 66.0593 145.412 66.1684 145.798C66.2887 146.177 66.4801 146.49 66.7427 146.737C67.0144 146.986 67.3236 147.147 67.6705 147.221C68.0265 147.297 68.378 147.282 68.725 147.174C69.074 147.058 69.3745 146.855 69.6265 146.565C69.8805 146.266 70.0568 145.884 70.1553 145.418Z" fill="#452181"/>
<path d="M89.8514 151.327C89.2198 151.39 88.6422 151.336 88.1185 151.163C87.5939 150.981 87.1635 150.71 86.8275 150.349C86.5007 149.988 86.2998 149.572 86.2247 149.101L88.1889 148.905C88.2557 149.198 88.4242 149.43 88.6944 149.6C88.9738 149.769 89.304 149.834 89.6847 149.796C90.0562 149.759 90.3367 149.656 90.5262 149.487C90.725 149.317 90.8128 149.116 90.7897 148.884C90.7647 148.633 90.6162 148.461 90.3441 148.366C90.0804 148.261 89.6625 148.162 89.0905 148.069C88.5008 147.987 88.0128 147.89 87.6265 147.779C87.2495 147.667 86.9111 147.471 86.6112 147.191C86.3207 146.91 86.1495 146.51 86.0976 145.99C86.0551 145.563 86.1369 145.161 86.3432 144.784C86.5588 144.406 86.884 144.092 87.3187 143.842C87.7627 143.591 88.2958 143.435 88.918 143.373C89.8374 143.281 90.5943 143.44 91.1885 143.849C91.7818 144.25 92.1451 144.837 92.2786 145.612L90.4119 145.798C90.3535 145.495 90.1994 145.266 89.9496 145.113C89.7082 144.949 89.3971 144.887 89.0164 144.925C88.6635 144.96 88.396 145.052 88.2139 145.202C88.0411 145.35 87.9663 145.541 87.9894 145.773C88.0153 146.033 88.1653 146.22 88.4392 146.333C88.7122 146.437 89.1296 146.531 89.6914 146.616C90.2625 146.7 90.7366 146.798 91.1136 146.91C91.4906 147.022 91.8248 147.224 92.1163 147.513C92.4162 147.793 92.5962 148.188 92.6564 148.698C92.7008 149.143 92.6153 149.555 92.3997 149.933C92.1934 150.31 91.8682 150.624 91.4242 150.875C90.9886 151.115 90.4643 151.266 89.8514 151.327Z" fill="#452181"/>
<path d="M105.035 139.552C104.71 139.669 104.402 139.665 104.11 139.541C103.824 139.405 103.627 139.183 103.517 138.876C103.408 138.568 103.423 138.275 103.562 137.997C103.707 137.708 103.942 137.505 104.267 137.389C104.592 137.273 104.898 137.282 105.184 137.418C105.475 137.542 105.676 137.758 105.785 138.066C105.894 138.373 105.877 138.672 105.732 138.962C105.593 139.239 105.36 139.436 105.035 139.552ZM106.254 140.098L108.849 147.407L107.003 148.067L104.408 140.758L106.254 140.098Z" fill="#452181"/>
<path d="M120.978 139.878L119.268 133.845L120.993 132.672L122.961 140.713L120.994 142.052L114.291 137.231L116.027 136.05L120.978 139.878Z" fill="#452181"/>
<path d="M138.686 127.524C138.225 128.112 137.683 128.54 137.058 128.808C136.426 129.07 135.765 129.149 135.076 129.045C134.393 128.934 133.74 128.632 133.117 128.141C132.494 127.649 132.051 127.08 131.788 126.432C131.53 125.777 131.46 125.11 131.578 124.43C131.688 123.744 131.973 123.107 132.434 122.519C132.894 121.931 133.443 121.503 134.081 121.233C134.711 120.958 135.371 120.872 136.06 120.976C136.755 121.073 137.414 121.367 138.037 121.858C138.66 122.35 139.097 122.927 139.349 123.589C139.606 124.244 139.677 124.918 139.561 125.611C139.443 126.291 139.152 126.929 138.686 127.524ZM137.345 126.466C137.563 126.187 137.702 125.874 137.76 125.527C137.816 125.168 137.766 124.807 137.61 124.446C137.454 124.085 137.182 123.752 136.794 123.445C136.215 122.989 135.651 122.793 135.102 122.859C134.551 122.912 134.102 123.158 133.757 123.599C133.412 124.04 133.279 124.536 133.358 125.085C133.435 125.622 133.764 126.119 134.342 126.576C134.921 127.033 135.48 127.242 136.02 127.204C136.558 127.153 136.999 126.907 137.345 126.466Z" fill="#452181"/>
<path d="M150.009 109.632C149.782 110.225 149.473 110.716 149.083 111.105C148.685 111.491 148.249 111.753 147.777 111.89C147.307 112.018 146.846 112.01 146.392 111.864L147.1 110.021C147.392 110.094 147.675 110.049 147.948 109.884C148.224 109.711 148.431 109.446 148.569 109.089C148.702 108.74 148.737 108.443 148.671 108.198C148.609 107.943 148.469 107.774 148.251 107.69C148.017 107.599 147.796 107.653 147.589 107.853C147.376 108.041 147.1 108.369 146.76 108.838C146.422 109.328 146.116 109.72 145.843 110.014C145.573 110.3 145.246 110.514 144.862 110.655C144.481 110.787 144.047 110.759 143.559 110.57C143.159 110.415 142.837 110.16 142.594 109.806C142.353 109.442 142.219 109.01 142.192 108.509C142.168 107.999 142.268 107.452 142.493 106.868C142.824 106.006 143.306 105.402 143.939 105.057C144.563 104.708 145.251 104.649 146.002 104.88L145.328 106.632C145.031 106.546 144.758 106.581 144.509 106.734C144.255 106.876 144.059 107.125 143.921 107.482C143.794 107.814 143.756 108.094 143.808 108.324C143.863 108.546 143.999 108.699 144.216 108.783C144.46 108.877 144.694 108.828 144.918 108.635C145.134 108.438 145.406 108.108 145.734 107.645C146.065 107.172 146.366 106.794 146.636 106.508C146.906 106.222 147.236 106.014 147.625 105.885C148.009 105.744 148.443 105.762 148.925 105.939C149.342 106.1 149.671 106.363 149.912 106.727C150.155 107.081 150.289 107.514 150.313 108.023C150.332 108.521 150.23 109.057 150.009 109.632Z" fill="#452181"/>
<path d="M19.1304 69.6297L20.6999 69.8282L20.3772 72.4121L28.5025 73.4395L28.2597 75.3844L20.1344 74.357L19.8117 76.941L18.2422 76.7425L19.1304 69.6297Z" fill="#452181"/>
<path d="M24.7384 60.7915C24.4274 60.4225 24.2239 60.0105 24.1278 59.5555C24.0346 59.0917 24.0695 58.6115 24.2327 58.115L26.1855 58.7647L26.0238 59.2568C25.8315 59.842 25.8231 60.331 25.9985 60.7239C26.1769 61.1078 26.6071 61.4132 27.289 61.6401L30.9554 62.86L30.3435 64.722L22.9842 62.2735L23.596 60.4114L24.7384 60.7915Z" fill="#452181"/>
<path d="M30.2889 53.7329C29.6101 53.3405 29.0845 52.8588 28.712 52.2877C28.3441 51.7085 28.1506 51.1062 28.1315 50.4807C28.1171 49.8471 28.2741 49.2425 28.6027 48.667C28.8896 48.1645 29.2405 47.7852 29.6553 47.5291C30.0748 47.2649 30.5029 47.1081 30.9395 47.0586L29.982 46.5051L30.9606 44.7908L37.6755 48.6723L36.6968 50.3867L35.715 49.8191C35.9052 50.2202 35.9943 50.6759 35.9823 51.1864C35.9668 51.6842 35.8157 52.1843 35.5288 52.6868C35.2049 53.2542 34.7633 53.6889 34.204 53.9909C33.6493 54.2847 33.0307 54.4176 32.3482 54.3896C31.6622 54.3488 30.9757 54.1299 30.2889 53.7329ZM33.3394 48.4459C32.9273 48.2077 32.5295 48.0855 32.1461 48.0795C31.7545 48.0688 31.4034 48.1568 31.0925 48.3437C30.7736 48.5259 30.5239 48.775 30.3434 49.0911C30.1629 49.4072 30.0731 49.7434 30.0739 50.0996C30.0748 50.4559 30.1761 50.8055 30.3779 51.1485C30.5762 51.4788 30.8774 51.7607 31.2814 51.9942C31.6855 52.2278 32.0873 52.3523 32.4869 52.3676C32.883 52.3702 33.2383 52.2845 33.5526 52.1105C33.8715 51.9283 34.1189 51.6832 34.2947 51.3752C34.4752 51.0591 34.5673 50.7189 34.5711 50.3545C34.5669 49.9855 34.4655 49.6359 34.2672 49.3056C34.0608 48.9707 33.7515 48.6841 33.3394 48.4459Z" fill="#452181"/>
<path d="M38.3991 37.8406L41.2034 40.3333C41.3987 40.5069 41.5818 40.5884 41.7525 40.5778C41.9224 40.554 42.1059 40.4299 42.3029 40.2055L42.9032 39.5216L44.138 40.6191L43.3252 41.545C42.2354 42.7865 41.0905 42.874 39.8907 41.8075L37.0968 39.3241L36.4872 40.0185L35.2839 38.9489L35.8935 38.2545L34.4599 36.9803L35.7622 35.4968L37.1957 36.771L38.341 35.4664L39.5443 36.536L38.3991 37.8406Z" fill="#452181"/>
<path d="M45.739 33.5133C45.2694 32.8855 44.9757 32.2357 44.8579 31.5639C44.7475 30.8865 44.8066 30.2564 45.035 29.6737C45.2709 29.0853 45.653 28.591 46.1813 28.1909C46.6426 27.8416 47.1142 27.6307 47.5962 27.5584C48.0857 27.4804 48.5408 27.5045 48.9615 27.6308L48.2991 26.7451L49.8728 25.5533L54.5181 31.7643L52.9445 32.9561L52.2653 32.048C52.2824 32.4916 52.1851 32.9458 51.9733 33.4106C51.7633 33.8623 51.4277 34.2628 50.9664 34.6122C50.4455 35.0066 49.8687 35.2327 49.236 35.2905C48.6106 35.3426 47.9898 35.2215 47.3734 34.9273C46.759 34.6199 46.2141 34.1486 45.739 33.5133ZM50.6218 29.8506C50.3367 29.4694 50.0191 29.2006 49.6691 29.0443C49.3134 28.8804 48.956 28.8233 48.5968 28.8729C48.2321 28.915 47.9046 29.0459 47.6144 29.2656C47.3242 29.4854 47.1095 29.7593 46.9702 30.0872C46.8308 30.4152 46.7865 30.7766 46.837 31.1715C46.8895 31.5532 47.0555 31.9309 47.335 32.3047C47.6145 32.6784 47.9348 32.9509 48.2961 33.1222C48.6591 33.2804 49.0193 33.3413 49.3767 33.3048C49.7415 33.2627 50.0652 33.1346 50.348 32.9205C50.6381 32.7007 50.8566 32.424 51.0034 32.0905C51.1445 31.7494 51.1889 31.388 51.1365 31.0062C51.0785 30.617 50.9069 30.2318 50.6218 29.8506Z" fill="#452181"/>
<path d="M65.9087 17.5635C66.7944 17.2146 67.6131 17.2081 68.3647 17.5441C69.1216 17.8679 69.6895 18.5169 70.0685 19.4911L71.7181 23.7315L69.8944 24.4499L68.3413 20.4573C68.1214 19.8919 67.8106 19.5178 67.409 19.3349C67.004 19.1434 66.554 19.1451 66.059 19.34C65.564 19.535 65.2281 19.8429 65.0513 20.2636C64.8797 20.6722 64.904 21.1592 65.1239 21.7246L66.677 25.7172L64.8534 26.4355L63.3003 22.4429C63.0803 21.8775 62.7695 21.5034 62.3679 21.3206C61.9629 21.129 61.5129 21.1307 61.0179 21.3257C60.5143 21.5241 60.174 21.8336 59.9972 22.2544C59.8257 22.663 59.8499 23.15 60.0698 23.7154L61.623 27.7079L59.7993 28.4263L56.9875 21.1979L58.8111 20.4796L59.1512 21.3538C59.2672 20.957 59.4737 20.5998 59.7708 20.2821C60.0765 19.9611 60.4508 19.7133 60.8937 19.5389C61.4582 19.3166 62.0092 19.2399 62.5468 19.309C63.0811 19.3695 63.5561 19.5736 63.9718 19.9214C64.0438 19.4115 64.2522 18.9433 64.597 18.5166C64.9504 18.0864 65.3876 17.7688 65.9087 17.5635Z" fill="#452181"/>
<path d="M77.1118 14.1464C76.7702 14.1976 76.4684 14.1342 76.2062 13.9564C75.9519 13.768 75.8009 13.5122 75.7531 13.189C75.7054 12.8659 75.7765 12.5815 75.9667 12.336C76.1647 12.0799 76.4344 11.9262 76.776 11.8751C77.1175 11.824 77.4154 11.8926 77.6697 12.0811C77.9319 12.2589 78.0868 12.5094 78.1346 12.8325C78.1824 13.1557 78.1073 13.4453 77.9093 13.7014C77.7191 13.947 77.4533 14.0953 77.1118 14.1464ZM78.2023 14.9175L79.3366 22.5901L77.3982 22.8802L76.2639 15.2077L78.2023 14.9175Z" fill="#452181"/>
<path d="M92.921 18.2045C92.9123 18.4844 92.8859 18.7357 92.8417 18.9584L87.1744 18.7811C87.2038 19.3422 87.3861 19.7868 87.7215 20.1148C88.0568 20.4428 88.4764 20.6147 88.9802 20.6304C89.7078 20.6532 90.2352 20.3569 90.5624 19.7415L92.6753 19.8076C92.4284 20.5469 91.9802 21.1492 91.3309 21.6145C90.6818 22.0704 89.8955 22.2839 88.972 22.255C88.2257 22.2316 87.559 22.0473 86.9721 21.7022C86.3948 21.3479 85.9475 20.8624 85.6305 20.2455C85.3227 19.6289 85.1811 18.9241 85.2056 18.1311C85.2304 17.3289 85.4154 16.6296 85.7606 16.0335C86.1059 15.4373 86.5774 14.9852 87.1752 14.6771C87.773 14.3689 88.4544 14.2269 89.2194 14.2508C89.9563 14.2739 90.6091 14.453 91.1777 14.7883C91.7556 15.1239 92.1941 15.5905 92.4931 16.1882C92.8017 16.7768 92.9443 17.4489 92.921 18.2045ZM90.9093 17.5813C90.9155 17.0772 90.746 16.6704 90.4007 16.3608C90.0558 16.0418 89.6267 15.8743 89.1137 15.8583C88.6286 15.8431 88.2135 15.9795 87.8684 16.2675C87.533 16.5465 87.3199 16.946 87.2291 17.4661L90.9093 17.5813Z" fill="#452181"/>
<path d="M104.547 16.5826C105.44 16.8184 106.088 17.2935 106.49 18.0077C106.895 18.713 106.965 19.5714 106.701 20.5829L105.554 24.9858L103.659 24.4856L104.739 20.3401C104.894 19.7441 104.864 19.2487 104.649 18.854C104.436 18.4502 104.072 18.1805 103.558 18.0447C103.034 17.9066 102.577 17.9596 102.185 18.2037C101.805 18.4412 101.537 18.858 101.382 19.4541L100.302 23.5996L98.4064 23.0994L100.363 15.5942L102.258 16.0944L102.014 17.0291C102.352 16.7707 102.738 16.6024 103.173 16.5241C103.62 16.4393 104.077 16.4588 104.547 16.5826Z" fill="#452181"/>
<path d="M116.271 22.9378L114.619 26.3062C114.504 26.5408 114.474 26.7396 114.529 26.9025C114.597 27.0612 114.764 27.207 115.032 27.3399L115.847 27.7448L115.119 29.2279L114.016 28.6797C112.536 27.9447 112.15 26.8566 112.857 25.4154L114.504 22.0595L113.676 21.6484L114.385 20.203L115.213 20.6142L116.058 18.8922L117.825 19.7705L116.981 21.4924L118.535 22.2648L117.826 23.7102L116.271 22.9378Z" fill="#452181"/>
<path d="M122.981 34.5776C122.389 34.1222 121.955 33.5823 121.68 32.9579C121.41 32.3261 121.321 31.6634 121.415 30.9698C121.516 30.2819 121.806 29.6221 122.286 28.9905C122.766 28.3589 123.327 27.907 123.967 27.6346C124.616 27.3679 125.279 27.2896 125.957 27.3995C126.641 27.502 127.279 27.781 127.871 28.2364C128.463 28.6918 128.897 29.2383 129.175 29.8758C129.458 30.5059 129.553 31.1677 129.459 31.8613C129.373 32.5606 129.09 33.2261 128.61 33.8577C128.13 34.4892 127.562 34.9355 126.907 35.1965C126.258 35.4632 125.588 35.5424 124.897 35.4342C124.219 35.3242 123.58 35.0387 122.981 34.5776ZM124.014 33.2178C124.295 33.4342 124.609 33.5694 124.954 33.6235C125.313 33.6758 125.671 33.6215 126.028 33.4604C126.385 33.2993 126.713 33.0219 127.012 32.6281C127.459 32.0411 127.645 31.472 127.571 30.9208C127.511 30.3679 127.259 29.9207 126.815 29.5791C126.371 29.2376 125.876 29.1098 125.33 29.196C124.797 29.2803 124.308 29.616 123.862 30.203C123.415 30.79 123.215 31.3543 123.261 31.8958C123.319 32.4356 123.57 32.8763 124.014 33.2178Z" fill="#452181"/>
<path d="M131.906 43.1564C131.495 42.673 131.211 42.1662 131.054 41.6361C130.905 41.1 130.881 40.5902 130.985 40.1069C131.094 39.6307 131.32 39.2266 131.663 38.8946L132.942 40.3982C132.74 40.6215 132.646 40.8931 132.661 41.213C132.682 41.54 132.816 41.8492 133.064 42.1406C133.306 42.425 133.55 42.5966 133.796 42.6556C134.049 42.7216 134.263 42.6785 134.44 42.5262C134.631 42.3618 134.688 42.1404 134.61 41.8622C134.546 41.585 134.389 41.1843 134.139 40.6603C133.87 40.1282 133.671 39.6712 133.543 39.2894C133.42 38.9147 133.388 38.5238 133.446 38.1166C133.51 37.7165 133.74 37.3459 134.136 37.0048C134.461 36.7246 134.837 36.5612 135.263 36.5146C135.695 36.475 136.137 36.5624 136.588 36.7768C137.046 36.9982 137.478 37.3471 137.883 37.8234C138.482 38.5272 138.783 39.2411 138.786 39.9651C138.796 40.683 138.523 41.3191 137.965 41.8734L136.749 40.4445C136.965 40.2222 137.064 39.9643 137.047 39.6708C137.043 39.3784 136.917 39.0864 136.669 38.7949C136.44 38.5248 136.212 38.3577 135.986 38.2937C135.766 38.2368 135.567 38.2845 135.391 38.4368C135.193 38.6073 135.125 38.8378 135.189 39.1283C135.259 39.4126 135.419 39.8101 135.67 40.3209C135.927 40.8389 136.117 41.2852 136.239 41.6599C136.362 42.0346 136.388 42.425 136.317 42.8312C136.259 43.2383 136.038 43.613 135.655 43.9551C135.316 44.2475 134.93 44.4135 134.498 44.453C134.072 44.4996 133.63 44.4122 133.172 44.1908C132.728 43.9704 132.306 43.6256 131.906 43.1564Z" fill="#452181"/>
<path d="M150.047 59.0121C150.362 59.8806 150.341 60.6839 149.984 61.422C149.635 62.1568 148.97 62.7047 147.989 63.0655L143.719 64.6361L143.05 62.7939L147.07 61.3151C147.648 61.1025 148.038 60.795 148.24 60.3928C148.45 59.9873 148.464 59.5346 148.283 59.0345C148.098 58.5257 147.793 58.1802 147.37 57.9979C146.958 57.8211 146.463 57.8391 145.885 58.0517L141.864 59.5305L141.195 57.6883L148.474 55.011L149.144 56.8532L148.237 57.1867C148.642 57.3163 149 57.5376 149.312 57.8503C149.636 58.1687 149.881 58.5559 150.047 59.0121Z" fill="#452181"/>
<path d="M145.489 74.3848C145.396 73.6438 145.475 72.9565 145.725 72.3228C145.984 71.688 146.394 71.1611 146.953 70.7424C147.513 70.3328 148.186 70.0783 148.974 69.9788C149.761 69.8793 150.476 69.9628 151.121 70.2294C151.767 70.5052 152.29 70.9237 152.689 71.4847C153.097 72.0445 153.348 72.6949 153.44 73.4358C153.533 74.1767 153.45 74.8692 153.192 75.5134C152.943 76.1563 152.539 76.6872 151.98 77.106C151.422 77.534 150.749 77.7978 149.962 77.8973C149.175 77.9968 148.458 77.904 147.811 77.6189C147.165 77.3431 146.638 76.9206 146.228 76.3515C145.829 75.7905 145.582 75.1349 145.489 74.3848ZM147.183 74.1705C147.227 74.5224 147.351 74.8407 147.556 75.1252C147.772 75.4179 148.062 75.6352 148.428 75.7771C148.794 75.919 149.222 75.9589 149.713 75.8969C150.444 75.8044 150.98 75.539 151.32 75.1009C151.671 74.6708 151.812 74.178 151.742 73.6223C151.673 73.0666 151.415 72.6241 150.97 72.2947C150.535 71.9734 149.951 71.859 149.22 71.9515C148.488 72.044 147.946 72.296 147.593 72.7075C147.25 73.1272 147.114 73.6148 147.183 74.1705Z" fill="#452181"/>
<circle cx="151" cy="92" r="3" fill="#452181"/>
<circle cx="23" cy="92" r="3" fill="#452181"/>
<path d="M51 94.5536C50.9975 96.997 51.697 99.3946 53.0226 101.487C54.3483 103.579 56.2496 105.285 58.5208 106.422C60.7919 107.559 63.3463 108.082 65.9073 107.935C68.4684 107.788 70.9384 106.977 73.05 105.589L72.9375 106.607C72.9375 110.159 74.4191 113.566 77.0563 116.077C79.6935 118.589 83.2704 120 87 120C90.7296 120 94.3065 118.589 96.9437 116.077C99.5809 113.566 101.062 110.159 101.062 106.607L100.95 105.589C103.2 107.089 105.956 107.946 108.937 107.946C112.667 107.946 116.244 106.535 118.881 104.024C121.518 101.512 123 98.1056 123 94.5536C123 89.1964 119.681 84.6429 114.956 82.5C119.681 80.3571 123 75.8036 123 70.4464C123.002 68.003 122.303 65.6054 120.977 63.5134C119.652 61.4213 117.75 59.7146 115.479 58.5779C113.208 57.4412 110.654 56.918 108.093 57.0647C105.532 57.2115 103.062 58.0228 100.95 59.4107L101.062 58.3929C101.062 54.8409 99.5809 51.4343 96.9437 48.9227C94.3065 46.411 90.7296 45 87 45C83.2704 45 79.6935 46.411 77.0563 48.9227C74.4191 51.4343 72.9375 54.8409 72.9375 58.3929L73.05 59.4107C70.8 57.9107 68.0438 57.0536 65.0625 57.0536C61.3329 57.0536 57.756 58.4646 55.1188 60.9762C52.4816 63.4879 51 66.8944 51 70.4464C51 75.8036 54.3188 80.3571 59.0438 82.5C54.3188 84.6429 51 89.1964 51 94.5536ZM87 69.1071C90.7296 69.1071 94.3065 70.5182 96.9437 73.0298C99.5809 75.5415 101.062 78.948 101.062 82.5C101.062 86.052 99.5809 89.4585 96.9437 91.9702C94.3065 94.4818 90.7296 95.8929 87 95.8929C83.2704 95.8929 79.6935 94.4818 77.0563 91.9702C74.4191 89.4585 72.9375 86.052 72.9375 82.5C72.9375 78.948 74.4191 75.5415 77.0563 73.0298C79.6935 70.5182 83.2704 69.1071 87 69.1071Z" fill="#452181"/>
</svg>
